<?xml version="1.0" encoding="UTF-8" standalone="no"?>
<!-- Created with Inkscape (http://www.inkscape.org/) -->

<svg
   width="200mm"
   height="200.00002mm"
   viewBox="0 0 200 200.00002"
   version="1.1"
   id="svg1"
   sodipodi:docname="bluetooth_low_power.svg"
   inkscape:version="1.4.2 (ebf0e940d0, 2025-05-08)"
   xmlns:inkscape="http://www.inkscape.org/namespaces/inkscape"
   xmlns:sodipodi="http://sodipodi.sourceforge.net/DTD/sodipodi-0.dtd"
   xmlns="http://www.w3.org/2000/svg"
   xmlns:svg="http://www.w3.org/2000/svg">
  <sodipodi:namedview
     id="namedview1"
     pagecolor="#ffffff"
     bordercolor="#000000"
     borderopacity="0.25"
     inkscape:showpageshadow="2"
     inkscape:pageopacity="0.0"
     inkscape:pagecheckerboard="0"
     inkscape:deskcolor="#d1d1d1"
     inkscape:document-units="mm"
     inkscape:zoom="1.0583333"
     inkscape:cx="377.48034"
     inkscape:cy="377.95278"
     inkscape:window-width="1920"
     inkscape:window-height="1011"
     inkscape:window-x="0"
     inkscape:window-y="0"
     inkscape:window-maximized="1"
     inkscape:current-layer="svg1" />
  <defs
     id="defs1" />
  <g
     id="layer1">
    <rect
       style="fill:#000000;stroke-width:0.615348"
       id="rect1"
       width="200"
       height="200"
       x="-200"
       y="0"
       transform="scale(-1,1)" />
    <path
       style="font-size:141.54px;-inkscape-font-specification:sans-serif;text-align:center;baseline-shift:baseline;text-anchor:middle;fill:#ffffff;stroke-width:0.531608"
       d="m 65.981031,16.842682 q 18.966359,0 28.591079,5.661599 9.76626,5.52006 9.76626,19.39098 0,5.944679 -2.26464,10.615499 -2.1231,4.52928 -6.51084,7.64316 -4.2462,2.97234 -10.47396,4.104659 v 0.7077 q 6.3693,0.99078 11.46474,3.68004 5.23698,2.68926 8.20932,7.64316 2.97234,4.9539 2.97234,12.880139 0,9.2001 -4.2462,15.710942 -4.2462,6.3693 -12.17244,9.76626 -7.7847,3.25542 -18.683279,3.25542 H 37.106873 V 16.842682 Z m 2.54772,43.028158 q 13.021679,0 17.834039,-4.10466 4.81236,-4.2462 4.81236,-12.45552 0,-8.350859 -5.94468,-11.889359 -5.803139,-3.68004 -18.683279,-3.68004 H 49.845472 V 59.87084 Z M 49.845472,70.486339 V 107.1452 h 20.381759 q 13.446299,0 18.683279,-5.23698 5.23698,-5.236982 5.23698,-13.729382 0,-5.378519 -2.40618,-9.341639 -2.26464,-3.96312 -7.7847,-6.08622 -5.378519,-2.26464 -14.720159,-2.26464 z M 129.10781,117.90224 V 16.842682 h 12.7386 v 89.736358 h 44.16048 v 11.3232 z m 130.64143,0 H 203.27478 V 16.842682 h 56.47446 V 28.024341 H 216.01338 V 59.58776 h 41.18814 v 11.040119 h -41.18814 v 36.092701 h 43.73586 z"
       id="text2"
       transform="scale(0.67372758,1.4842794)"
       aria-label="BLE" />
  </g>
</svg>
