<?xml version="1.0" encoding="UTF-8" standalone="no"?>
<!-- Created with Inkscape (http://www.inkscape.org/) -->

<svg
   width="101.6mm"
   height="135.46669mm"
   viewBox="0 0 101.6 135.46669"
   version="1.1"
   id="svg1"
   xml:space="preserve"
   xmlns="http://www.w3.org/2000/svg"
   xmlns:svg="http://www.w3.org/2000/svg"><defs
     id="defs1" /><g
     id="layer1"
     transform="translate(-82.814583,-42.068756)"><path
       id="path4"
       style="display:inline;stroke-width:0.264583"
       d="m 134.83156,42.06875 c -29.95083,0 -52.016977,14.234684 -52.016977,68.63302 0,54.39833 22.674887,66.83365 52.625727,66.83365 29.95082,0 48.97427,-12.43532 48.97427,-66.83365 0,-54.371878 -19.63219,-68.63302 -49.58302,-68.63302 z m -2.36058,16.715776 c 1.25702,0 8.96405,6.710159 17.12712,14.911234 l 14.84199,14.910718 -7.76748,7.781954 -7.768,7.781438 -3.52124,-3.52743 -3.52123,-3.527954 4.14342,-4.282426 4.14341,-4.282426 -4.8059,-4.81521 -4.80643,-4.814693 v 8.34316 8.342643 l -5.17539,-5.06274 -5.17591,-5.063257 V 72.132031 c 0,-11.894801 0.24895,-13.347505 2.28564,-13.347505 z m -31.43632,10.348722 37.83542,37.887092 37.8349,37.88709 -3.46387,3.62252 -3.46439,3.62252 -6.2203,-6.13813 -6.2208,-6.13812 -11.33626,11.30422 c -6.23507,6.21738 -12.34409,11.30473 -13.5754,11.30473 -2.02443,0 -2.23862,-1.89044 -2.23862,-19.74246 v -19.74247 l -11.99565,11.96723 -11.99566,11.96775 -3.53621,-3.54242 -3.535705,-3.54242 14.541745,-14.60945 14.54123,-14.60944 -17.13073,-17.196883 -17.13074,-17.1974 3.54552,-3.552238 z m 39.50198,53.859242 4.83071,4.83898 4.83072,4.8395 -4.83072,4.8395 -4.83071,4.8395 v -9.679 z" /></g></svg>
