<?xml version="1.0" encoding="UTF-8" standalone="no"?>
<!-- Created with Inkscape (http://www.inkscape.org/) -->

<svg
   width="200mm"
   height="200.00002mm"
   viewBox="0 0 200 200.00002"
   version="1.1"
   id="svg1"
   sodipodi:docname="bluetooth_classic.svg"
   inkscape:version="1.4.2 (ebf0e940d0, 2025-05-08)"
   xmlns:inkscape="http://www.inkscape.org/namespaces/inkscape"
   xmlns:sodipodi="http://sodipodi.sourceforge.net/DTD/sodipodi-0.dtd"
   xmlns="http://www.w3.org/2000/svg"
   xmlns:svg="http://www.w3.org/2000/svg">
  <sodipodi:namedview
     id="namedview1"
     pagecolor="#ffffff"
     bordercolor="#000000"
     borderopacity="0.25"
     inkscape:showpageshadow="2"
     inkscape:pageopacity="0.0"
     inkscape:pagecheckerboard="0"
     inkscape:deskcolor="#d1d1d1"
     inkscape:document-units="mm"
     inkscape:zoom="1.0583333"
     inkscape:cx="377.48034"
     inkscape:cy="377.95278"
     inkscape:window-width="1920"
     inkscape:window-height="1011"
     inkscape:window-x="0"
     inkscape:window-y="0"
     inkscape:window-maximized="1"
     inkscape:current-layer="svg1" />
  <defs
     id="defs1" />
  <g
     id="layer1">
    <rect
       style="fill:#000000;stroke-width:0.615348"
       id="rect1"
       width="200"
       height="200"
       x="-200"
       y="0"
       transform="scale(-1,1)" />
    <path
       style="font-size:162.982px;-inkscape-font-specification:sans-serif;text-align:center;baseline-shift:baseline;text-anchor:middle;fill:#ffffff;stroke-width:0.612143"
       d="m 64.595723,21.567929 q 21.839587,0 32.922363,6.519279 11.245754,6.356298 11.245754,22.328534 0,6.845243 -2.60771,12.223649 -2.44473,5.215424 -7.49717,8.801028 -4.88946,3.422622 -12.060668,4.726478 v 0.81491 q 7.33419,1.140874 13.201542,4.237532 6.030336,3.096658 9.452956,8.801027 3.42262,5.70437 3.42262,14.831364 0,10.59383 -4.88946,18.091 -4.88946,7.33419 -14.01645,11.24576 -8.96401,3.74858 -21.513624,3.74858 H 31.347396 V 21.567929 Z m 2.933676,49.546526 q 14.994343,0 20.535731,-4.726478 5.541388,-4.88946 5.541388,-14.342415 0,-9.615938 -6.845244,-13.690488 -6.682262,-4.237532 -21.513623,-4.237532 H 46.015775 v 36.996913 z m -21.513624,12.22365 v 42.212335 h 23.469407 q 15.48329,0 21.513624,-6.03033 6.030334,-6.03034 6.030334,-15.80926 0,-6.193312 -2.770694,-10.756808 -2.607712,-4.563496 -8.96401,-7.008226 Q 79.10112,83.338105 68.344309,83.338105 Z M 187.15812,32.813686 q -9.28998,0 -16.78715,3.25964 -7.49717,3.096658 -12.71259,9.289974 -5.21543,6.030334 -7.98612,14.831361 -2.77069,8.638046 -2.77069,19.55784 0,14.342415 4.40051,24.936249 4.5635,10.59383 13.36452,16.2982 8.96401,5.70437 22.32854,5.70437 7.66015,0 14.50539,-1.30386 6.84525,-1.30386 13.36453,-3.25964 v 12.71259 q -6.51928,2.44473 -13.52751,3.58561 -6.84524,1.14087 -16.46118,1.14087 -17.76504,0 -29.66272,-7.33419 -11.89769,-7.33419 -17.92802,-20.86169 -5.86735,-13.527508 -5.86735,-31.781491 0,-13.201542 3.5856,-24.121336 3.74859,-10.919793 10.75681,-18.905911 7.17121,-7.986118 17.60206,-12.22365 10.43084,-4.400513 23.95835,-4.400513 8.96401,0 17.27609,1.792802 8.31208,1.792802 14.83136,5.052441 l -5.86735,12.386632 q -5.3784,-2.44473 -12.06067,-4.400514 -6.51928,-1.955784 -14.34241,-1.955784 z"
       id="text2"
       transform="scale(0.7975245,1.25388)"
       aria-label="BC" />
  </g>
</svg>
