<?xml version="1.0" encoding="UTF-8" standalone="no"?>
<!-- Created with Inkscape (http://www.inkscape.org/) -->

<svg
   width="200mm"
   height="200.00002mm"
   viewBox="0 0 200 200.00002"
   version="1.1"
   id="svg1"
   sodipodi:docname="bluetooth_high_speed.svg"
   inkscape:version="1.4.2 (ebf0e940d0, 2025-05-08)"
   xmlns:inkscape="http://www.inkscape.org/namespaces/inkscape"
   xmlns:sodipodi="http://sodipodi.sourceforge.net/DTD/sodipodi-0.dtd"
   xmlns="http://www.w3.org/2000/svg"
   xmlns:svg="http://www.w3.org/2000/svg">
  <sodipodi:namedview
     id="namedview1"
     pagecolor="#ffffff"
     bordercolor="#000000"
     borderopacity="0.25"
     inkscape:showpageshadow="2"
     inkscape:pageopacity="0.0"
     inkscape:pagecheckerboard="0"
     inkscape:deskcolor="#d1d1d1"
     inkscape:document-units="mm"
     inkscape:zoom="1.0583333"
     inkscape:cx="377.48034"
     inkscape:cy="377.95278"
     inkscape:window-width="1920"
     inkscape:window-height="1011"
     inkscape:window-x="0"
     inkscape:window-y="0"
     inkscape:window-maximized="1"
     inkscape:current-layer="svg1" />
  <defs
     id="defs1" />
  <g
     id="layer1">
    <rect
       style="fill:#000000;stroke-width:0.615348"
       id="rect1"
       width="200"
       height="200"
       x="-200"
       y="0"
       transform="scale(-1,1)" />
    <path
       style="font-size:130.645px;-inkscape-font-specification:sans-serif;text-align:center;baseline-shift:baseline;text-anchor:middle;fill:#ffffff;stroke-width:0.490684"
       d="m 65.757227,17.287803 q 17.506431,0 26.390291,5.225801 9.014502,5.095155 9.014502,17.898365 0,5.48709 -2.090316,9.798376 -1.959675,4.18064 -6.009671,7.05483 -3.91935,2.743545 -9.66773,3.788705 v 0.653225 q 5.879025,0.914515 10.582245,3.39677 4.833866,2.482255 7.577412,7.05483 2.74354,4.572575 2.74354,11.888696 0,8.491925 -3.91935,14.501595 -3.919347,5.879024 -11.235467,9.014504 -7.185475,3.00484 -17.24514,3.00484 H 39.105647 V 17.287803 Z m 2.351611,39.716082 q 12.01934,0 16.46127,-3.788705 4.44193,-3.919351 4.44193,-11.496761 0,-7.708055 -5.48709,-10.97418 -5.356445,-3.39677 -17.245141,-3.39677 H 50.863697 V 57.003885 Z M 50.863697,66.80226 v 33.83706 h 18.812881 q 12.411275,0 17.24514,-4.833869 4.833865,-4.833865 4.833865,-12.672565 0,-4.964511 -2.220965,-8.622571 -2.09032,-3.65806 -7.185475,-5.617735 -4.96451,-2.09032 -13.58708,-2.09032 z M 195.35702,110.56834 H 183.59897 V 67.06355 H 135.7829 v 43.50479 H 124.02485 V 17.287803 h 11.75805 v 39.454792 h 47.81607 V 17.287803 h 11.75805 z m 78.3869,-24.953199 q 0,8.36128 -4.04999,14.240305 -4.05,5.748384 -11.62741,8.883864 -7.44676,3.13548 -17.63707,3.13548 -5.2258,0 -10.05967,-0.52258 -4.70322,-0.52258 -8.62257,-1.4371 -3.91935,-1.04516 -6.92418,-2.48225 V 96.197386 q 4.70322,2.09032 11.6274,3.788705 7.05483,1.698389 14.5016,1.698389 6.92418,0 11.6274,-1.829034 4.70322,-1.82903 7.05483,-5.2258 2.35161,-3.39677 2.35161,-7.969345 0,-4.572575 -1.95967,-7.708056 -1.95968,-3.13548 -6.79354,-5.74838 -4.70322,-2.743545 -13.19515,-5.74838 -6.00967,-2.220965 -10.58224,-4.70322 -4.44193,-2.6129 -7.44677,-5.879025 -3.00483,-3.266125 -4.57257,-7.446766 -1.4371,-4.18064 -1.4371,-9.66773 0,-7.446765 3.78871,-12.672565 3.7887,-5.356445 10.4516,-8.230636 6.79354,-2.87419 15.54675,-2.87419 7.70806,0 14.10966,1.437095 6.40161,1.437095 11.62741,3.788706 l -3.65806,10.059665 q -4.83387,-2.09032 -10.58225,-3.527415 -5.61773,-1.437095 -11.75805,-1.437095 -5.87902,0 -9.79837,1.698385 -3.91935,1.698385 -5.87903,4.833865 -1.95967,3.004835 -1.95967,7.05483 0,4.70322 1.95967,7.8387 1.95968,3.135481 6.40161,5.617736 4.44193,2.482255 12.01934,5.356445 8.23063,3.004835 13.84837,6.53225 5.74838,3.39677 8.62257,8.230635 3.00483,4.833865 3.00483,12.149986 z"
       id="text2"
       transform="scale(0.6392853,1.5642468)"
       aria-label="BHS" />
  </g>
</svg>
