<?xml version="1.0" encoding="UTF-8" standalone="no"?>
<!-- Created with Inkscape (http://www.inkscape.org/) -->

<svg
   width="200mm"
   height="200.00002mm"
   viewBox="0 0 200 200.00002"
   version="1.1"
   id="svg1"
   sodipodi:docname="system.svg"
   inkscape:version="1.4.2 (ebf0e940d0, 2025-05-08)"
   xmlns:inkscape="http://www.inkscape.org/namespaces/inkscape"
   xmlns:sodipodi="http://sodipodi.sourceforge.net/DTD/sodipodi-0.dtd"
   xmlns="http://www.w3.org/2000/svg"
   xmlns:svg="http://www.w3.org/2000/svg">
  <sodipodi:namedview
     id="namedview1"
     pagecolor="#ffffff"
     bordercolor="#000000"
     borderopacity="0.25"
     inkscape:showpageshadow="2"
     inkscape:pageopacity="0.0"
     inkscape:pagecheckerboard="0"
     inkscape:deskcolor="#d1d1d1"
     inkscape:document-units="mm"
     inkscape:zoom="1.0583333"
     inkscape:cx="377.48034"
     inkscape:cy="377.95278"
     inkscape:window-width="1920"
     inkscape:window-height="1011"
     inkscape:window-x="0"
     inkscape:window-y="0"
     inkscape:window-maximized="1"
     inkscape:current-layer="layer1" />
  <defs
     id="defs1" />
  <g
     id="layer1">
    <rect
       style="fill:#000000;stroke-width:0.615348"
       id="rect1"
       width="200"
       height="200"
       x="-200"
       y="0"
       transform="scale(-1,1)" />
    <path
       style="font-size:139.91px;-inkscape-font-specification:sans-serif;text-align:center;baseline-shift:baseline;text-anchor:middle;fill:#ffffff;stroke-width:0.525487"
       d="m 99.615908,91.687468 q 0,8.954242 -4.33721,15.250192 -4.33721,6.15604 -12.45199,9.51388 -7.97487,3.35784 -18.887851,3.35784 -5.5964,0 -10.77307,-0.55964 -5.03676,-0.55964 -9.23406,-1.53901 -4.1973,-1.11928 -7.41523,-2.65829 v -12.03226 q 5.03676,2.23856 12.45199,4.05739 7.55514,1.81883 15.53001,1.81883 7.415231,0 12.451991,-1.95874 5.03676,-1.95874 7.55514,-5.5964 2.51838,-3.637662 2.51838,-8.534512 0,-4.89685 -2.09865,-8.254691 -2.09865,-3.35784 -7.27532,-6.15604 -5.03676,-2.93811 -14.130911,-6.15604 -6.43586,-2.37847 -11.33271,-5.03676 -4.75694,-2.7982 -7.97487,-6.29595 -3.21793,-3.49775 -4.89685,-7.97487 -1.53901,-4.477121 -1.53901,-10.353341 0,-7.97487 4.05739,-13.57127 4.05739,-5.73631 11.1928,-8.81433 7.27532,-3.07802 16.649291,-3.07802 8.25469,0 15.11028,1.53901 6.85559,1.53901 12.45199,4.05739 l -3.91748,10.77307 q -5.17667,-2.23856 -11.33271,-3.77757 -6.01613,-1.53901 -12.5919,-1.53901 -6.295951,0 -10.493251,1.81883 -4.1973,1.81883 -6.29595,5.17667 -2.09865,3.21793 -2.09865,7.55514 0,5.03676 2.09865,8.394601 2.09865,3.35784 6.85559,6.01613 4.75694,2.65829 12.871721,5.73631 8.81433,3.21793 14.83046,6.9955 6.15604,3.63766 9.23406,8.81433 3.21793,5.17667 3.21793,13.011631 z M 145.78618,67.622947 171.80944,18.514536 h 13.57127 l -33.29858,61.140671 v 38.755073 h -12.5919 V 80.214847 L 106.19165,18.514536 h 13.71118 z m 109.82935,24.064521 q 0,8.954242 -4.33721,15.250192 -4.33721,6.15604 -12.45199,9.51388 -7.97487,3.35784 -18.88785,3.35784 -5.5964,0 -10.77307,-0.55964 -5.03676,-0.55964 -9.23406,-1.53901 -4.1973,-1.11928 -7.41523,-2.65829 v -12.03226 q 5.03676,2.23856 12.45199,4.05739 7.55514,1.81883 15.53001,1.81883 7.41523,0 12.45199,-1.95874 5.03676,-1.95874 7.55514,-5.5964 2.51838,-3.637662 2.51838,-8.534512 0,-4.89685 -2.09865,-8.254691 -2.09865,-3.35784 -7.27532,-6.15604 -5.03676,-2.93811 -14.13091,-6.15604 -6.43586,-2.37847 -11.33271,-5.03676 -4.75694,-2.7982 -7.97487,-6.29595 -3.21793,-3.49775 -4.89685,-7.97487 -1.53901,-4.477121 -1.53901,-10.353341 0,-7.97487 4.05739,-13.57127 4.05739,-5.73631 11.1928,-8.81433 7.27532,-3.07802 16.64929,-3.07802 8.25469,0 15.11028,1.53901 6.85559,1.53901 12.45199,4.05739 l -3.91748,10.77307 q -5.17667,-2.23856 -11.33271,-3.77757 -6.01613,-1.53901 -12.5919,-1.53901 -6.29595,0 -10.49325,1.81883 -4.1973,1.81883 -6.29595,5.17667 -2.09865,3.21793 -2.09865,7.55514 0,5.03676 2.09865,8.394601 2.09865,3.35784 6.85559,6.01613 4.75694,2.65829 12.87172,5.73631 8.81433,3.21793 14.83046,6.9955 6.15604,3.63766 9.23406,8.81433 3.21793,5.17667 3.21793,13.011631 z"
       id="text2"
       transform="scale(0.684623,1.4606579)"
       aria-label="SYS" />
  </g>
</svg>
